<?xml version="1.0" encoding="UTF-8"?>
<svg id="Layer_1" xmlns="http://www.w3.org/2000/svg" version="1.1" viewBox="0 0 200 215.7">
  <!-- Generator: Adobe Illustrator 29.6.1, SVG Export Plug-In . SVG Version: 2.1.1 Build 9)  -->
  <defs>
    <style>
      .st0 {
        fill: #ff6332;
      }

      .st1 {
        fill: #fff;
      }

      .st2 {
        fill: #98c7f3;
      }

      .st3 {
        fill: #e7edf2;
      }

      .st4 {
        fill: #f35a5d;
      }
    </style>
  </defs>
  <path class="st3" d="M77.1,122.1c-13.8,18.8-12.4,42.4-8.1,64.2,1.5,7.3,12.8,5,11.3-2.4-3.8-18.8-5.6-39.2,6.4-55.5,4.4-6-5.3-12.3-9.7-6.3Z"/>
  <path class="st2" d="M66.7,184.2l16.6.4-.6,26.3h-46s-.2-6.2-.2-6.2c0,0,3.4-11.8,30.3-8.3l-.2-12.1Z"/>
  <path d="M82.9,211h-46.4s-.2-6.5-.2-6.5h0c0-.2.9-3.1,5.2-5.6,3.9-2.3,11.3-4.7,25.2-2.9v-12.1c-.1,0,16.9.4,16.9.4v.2s-.6,26.5-.6,26.5ZM36.9,210.6h45.6s.6-25.8.6-25.8l-16.2-.4.2,12.1h-.2c-25.8-3.3-29.9,7.5-30.1,8.1l.2,6Z"/>
  <path class="st1" d="M51.5,196c-12,1.6-14.6,7.6-15,8.5,0,0,0,.1,0,.2l.2,6.1h18.5c-.5-5.1-1.6-10-3.7-14.8Z"/>
  <path d="M55.4,211h-19s-.2-6.3-.2-6.3c0,0,0-.2,0-.3.2-.5.9-2.2,3.1-4.1,2.8-2.3,6.9-3.9,12-4.5h.2s0,.1,0,.1c2,4.4,3.2,9.3,3.7,14.8v.2ZM36.9,210.6h18.1c-.5-5.3-1.7-10-3.6-14.3-5,.7-8.9,2.2-11.6,4.4-2.1,1.8-2.8,3.4-3,3.9,0,0,0,0,0,.1l.2,5.9Z"/>
  <path class="st1" d="M82.8,204.2l-46.1.3c-.1,0-.2,0-.2.2l.2,6h46s.1-6.5.1-6.5Z"/>
  <path d="M82.9,211h-46.4s-.2-6.2-.2-6.2c0-.1,0-.2.1-.3,0,0,.2-.1.3-.1l46.4-.3-.2,7ZM36.9,210.6h45.6s.1-6.1.1-6.1l-45.9.3.2,5.8Z"/>
  <path d="M76,189.1h0l-9.2-.2c-.1,0-.2,0-.2-.2,0-.1.1-.2.2-.2l9.2.2c.1,0,.2,0,.2.2,0,.1,0,.2-.2.2Z"/>
  <path d="M75.8,193.6h0l-8.9-.2c-.1,0-.2,0-.2-.2,0-.1.1-.2.2-.2l8.9.2c.1,0,.2,0,.2.2,0,.1,0,.2-.2.2Z"/>
  <path class="st3" d="M142.9,161.4c-5.5.9-16.2,5.8-21.5,2.6-9.2-5.4-5.1-24.4-3.3-32.3,1.6-6.8-9.1-8.6-10.7-1.8-2.9,12.8-5.1,31.8,6.1,41.6,8.7,7.6,20.5,2.2,30.4.6,6.9-1.1,5.9-11.9-1-10.8Z"/>
  <path class="st2" d="M140.9,175.6l-4.7-15.9,25.2-7.5,14.1,43.8-5.8,2.1s-12.2.4-17.3-26.3l-11.4,3.9Z"/>
  <path d="M169.6,198.2c-.4,0-3.3-.1-6.8-3.2-3.4-3-7.9-9.4-10.5-23l-11.4,3.9-4.9-16.3,25.6-7.6,14.3,44.2-6.1,2.2s0,0,0,0ZM152.5,171.5v.2c4.9,25.6,16.4,26.1,17.1,26.1l5.6-2-14-43.4-24.8,7.4,4.6,15.5,11.5-3.9Z"/>
  <path class="st1" d="M156.8,186.4c5.6,11.8,12.8,11.6,12.8,11.6l5.8-2.1-5.7-17.6c-4.7,2-9.1,4.6-12.9,8.1Z"/>
  <path d="M169.6,198.2c-.7,0-7.5-.3-12.9-11.7h0c0-.1.1-.2.1-.2,3.6-3.3,7.9-5.9,13-8.1h.2c0,0,5.8,17.9,5.8,17.9l-6.1,2.2s0,0,0,0ZM157.1,186.5c5.3,11,12,11.4,12.5,11.4l5.6-2-5.6-17.2c-4.9,2.2-9,4.7-12.5,7.9Z"/>
  <path class="st1" d="M155,154l14.5,43.8c0,.1.1.2.2.1l5.7-2-14.1-43.8-6.3,1.9Z"/>
  <path d="M169.7,198.2c0,0-.1,0-.2,0,0,0-.2-.1-.2-.2l-14.6-44,6.7-2,14.3,44.2-5.8,2.1s0,0-.1,0ZM155.3,154.2l14.5,43.6,5.5-2-14-43.4-5.9,1.8Z"/>
  <path d="M145.1,174.3c0,0-.2,0-.2-.1l-3-8.9c0-.1,0-.2.1-.3.1,0,.2,0,.3.1l3,8.9c0,.1,0,.2-.1.3,0,0,0,0,0,0Z"/>
  <path d="M149.5,172.8c0,0-.2,0-.2-.1l-2.9-8.7c0-.1,0-.2.1-.3.1,0,.2,0,.3.1l2.9,8.7c0,.1,0,.2-.1.3,0,0,0,0,0,0Z"/>
  <polygon class="st2" points="27.1 118.5 170.2 140.6 182.8 61.2 39.7 39.1 27.1 118.5"/>
  <path d="M170.4,140.9L26.8,118.7v-.2s12.7-79.6,12.7-79.6l143.6,22.2v.2s-12.7,79.6-12.7,79.6ZM27.3,118.3l142.8,22.1,12.5-79L39.8,39.3l-12.5,79Z"/>
  <polygon class="st4" points="45 17.3 182.9 61.3 187.7 46.8 49.8 2.8 45 17.3"/>
  <path d="M183,61.5h-.2c0,0-138.1-44.1-138.1-44.1l4.9-14.9h.2c0,0,138.1,44.1,138.1,44.1l-4.9,14.9ZM45.3,17.2l137.5,43.9,4.6-14.1L49.9,3l-4.6,14.1Z"/>
  <path class="st1" d="M77.4,11.6l18.5,5.9c4.8,6.9,9.7,13.7,14.4,20.6l-19.2-6.1c-4.5-6.9-9.1-13.7-13.8-20.4Z"/>
  <path d="M110.8,38.5l-19.8-6.3h0c-4.7-7.2-9.3-14-13.8-20.5l-.3-.5,19.1,6.1h0c5.3,7.6,10,14.3,14.4,20.7l.3.5ZM91.3,31.8l18.5,5.9c-4.3-6.2-8.9-12.8-14.1-20.1l-17.8-5.7c4.4,6.3,8.9,13,13.4,19.9Z"/>
  <path class="st1" d="M47.6,9.4l2.2-6.6,8,2.5c4.9,6.8,9.8,13.7,14.5,20.7l-18.4-5.9c-2.1-3.6-4.2-7.2-6.3-10.8Z"/>
  <path d="M72.8,26.4l-19-6.1h0c-2-3.6-4.1-7.2-6.3-10.8h0c0,0,2.2-7,2.2-7l8.2,2.6h0c5.1,7.1,10,14,14.5,20.7l.3.5ZM54,20l17.7,5.7c-4.5-6.5-9.2-13.3-14.2-20.1l-7.7-2.5-2.1,6.3c2.1,3.6,4.2,7.1,6.2,10.6Z"/>
  <path class="st1" d="M115.4,23.7l17.6,5.6c5.7,7,11.3,14.1,16.7,21.4l-20.2-6.4c-4.7-6.9-9.4-13.7-14.1-20.5Z"/>
  <path d="M150.2,51.1l-20.8-6.6h0c-4.3-6.5-9-13.2-14.1-20.6l-.3-.5,18.2,5.8h0c5.7,7.1,11.4,14.3,16.7,21.4l.4.5ZM129.6,44.1l19.5,6.2c-5.2-6.9-10.7-13.9-16.3-20.8l-17-5.4c5,7.2,9.5,13.7,13.7,20Z"/>
  <path class="st1" d="M184.5,56.5l-1.6,4.8-13.3-4.2c-5.1-7.1-10.3-14.1-15.6-21l19.7,6.3c3.6,4.7,7.2,9.4,10.8,14.1Z"/>
  <path d="M183,61.5l-13.5-4.3h0c-5-7-10.2-14.1-15.6-21.1l-.4-.5,20.4,6.5h0c3.6,4.7,7.2,9.5,10.8,14.2h0c0,0-1.7,5.2-1.7,5.2ZM169.8,56.9l13,4.1,1.5-4.5c-3.5-4.7-7.1-9.4-10.7-14l-19-6.1c5.2,6.8,10.4,13.7,15.2,20.4Z"/>
  <path class="st4" d="M182.8,61.2l-2.9,18.1-2.7-.4-17.8-2.8-19.5-3-17.1-2.7-20.2-3.2-17.6-2.7-19.2-3s0,0,0,0l-16.7-2.6-12.4-1.9,2.1-13.2.7-4.7,12.8,2,18.2,2.8,17.3,2.7,19.2,3,17.8,2.8h0s18.2,2.8,18.2,2.8h0s18.2,2.8,18.2,2.8l21.4,3.3Z"/>
  <path d="M180.1,79.5L36.6,57.1l2.9-18.2,143.6,22.2-2.9,18.5ZM66.1,61.3l113.7,17.8,2.8-17.7L39.8,39.3l-2.8,17.4,29,4.5Z"/>
  <path class="st1" d="M182.8,61.2l-2.9,18.1-2.7-.4c-5.4-6.7-10.3-14-15.7-20.8,0,0-.1-.1-.2-.2l21.4,3.3Z"/>
  <path d="M180.1,79.5l-3-.5h0c-2.8-3.6-5.6-7.3-8.2-10.9-2.4-3.3-4.9-6.7-7.4-9.9l-.5-.6,22.1,3.4-2.9,18.5ZM177.4,78.7l2.4.4,2.8-17.7-20.7-3.2c2.5,3.2,4.9,6.5,7.3,9.7,2.6,3.6,5.4,7.3,8.2,10.8Z"/>
  <path class="st1" d="M159.5,76.1l-19.5-3c-1.2-1.8-2.3-3.5-3.5-5.2-3.7-5.2-7.6-10.4-11.4-15.6l18.2,2.8h0c2.7,3.4,5.4,6.8,8.1,10.2,2.8,3.5,5.4,7.1,8.1,10.8Z"/>
  <path d="M159.9,76.4l-20.1-3.1-.5-.7c-1-1.5-2-3.1-3.1-4.6-3.7-5.2-7.6-10.4-11.4-15.6l-.3-.4,18.7,2.9h0s0,0,0,0l2.5,3.1c1.9,2.4,3.8,4.7,5.7,7.1,2.6,3.3,5.1,6.7,7.6,10.1l.8,1.1ZM140.1,72.9l18.9,3-.2-.3c-2.5-3.3-5-6.8-7.6-10.1-1.9-2.4-3.8-4.8-5.7-7.1l-2.4-3-17.6-2.7c3.7,5,7.5,10.1,11.1,15.2,1.1,1.5,2.1,3.1,3.1,4.6l.4.5Z"/>
  <path class="st1" d="M122.8,70.4l-20.2-3.2c-4.2-6.7-9.4-13.2-13.7-19.4-.3-.4-.6-.9-.9-1.3l19.2,3c2.5,3.2,4.9,6.4,7.3,9.6,2.8,3.7,5.6,7.5,8.3,11.3Z"/>
  <path d="M123.3,70.7l-20.8-3.2h0c-2.7-4.3-5.7-8.5-8.7-12.5-1.8-2.4-3.4-4.7-5-7-.2-.3-.4-.5-.6-.8l-.6-.9,19.8,3.1h0c2.6,3.4,5,6.6,7.3,9.6,2.7,3.6,5.5,7.4,8.3,11.3l.3.4ZM102.8,67l19.6,3.1c-2.7-3.8-5.4-7.4-8-10.9-2.3-3.1-4.7-6.2-7.3-9.5l-18.7-2.9h0c.2.4.4.6.6.9,1.6,2.3,3.3,4.5,5,6.9,2.9,4,6,8.1,8.7,12.4Z"/>
  <path class="st1" d="M85.1,64.5l-19.2-3s0,0,0,0c-4.6-6.7-8.8-13.8-13.4-20.4l18.2,2.8c2.3,3.2,4.6,6.3,6.8,9.5,2.6,3.7,5,7.4,7.6,11Z"/>
  <path d="M85.5,64.7l-19.8-3.1h0c-2.1-3.1-4.1-6.3-6-9.3-2.4-3.7-4.8-7.5-7.4-11.1l-.3-.4,18.8,2.9h0c2.6,3.6,4.8,6.7,6.8,9.6,1.9,2.7,3.7,5.4,5.5,8.1.7,1,1.4,2,2,3l.3.4ZM66.1,61.3l18.6,2.9c-.6-.9-1.2-1.7-1.8-2.6-1.8-2.7-3.6-5.4-5.5-8.1-2-2.9-4.2-6-6.8-9.5l-17.6-2.7c2.4,3.5,4.8,7.2,7.1,10.7,1.9,3,3.9,6.2,6,9.2h0Z"/>
  <path class="st1" d="M49.2,58.9l-12.4-1.9,2.1-13.2c.8,1.1,1.6,2.2,2.4,3.2,2.8,3.8,5.3,7.8,7.9,11.9Z"/>
  <path d="M49.6,59.1l-13-2,2.2-13.9.6.9c.7.9,1.4,1.8,2,2.8,2.8,3.9,5.5,8.1,7.9,11.9l.2.4ZM37.1,56.8l11.7,1.8c-2.3-3.6-4.9-7.7-7.7-11.5-.7-.9-1.3-1.8-2-2.8h0c0,0-2,12.4-2,12.4Z"/>
  <path class="st1" d="M89.2,68.8c0,.4-.3,2.7-.4,3.5-2.1,10.7-10.5,18.8-20.5,20.3-1.7.3-3.5.3-5.2.2-13-1-22.4-12.9-20.9-26.5,1.4-13.6,13.1-23.9,26.1-22.9,1,0,2,.2,3,.4,7.2,1.5,13,6.5,15.9,13.2h0c0,.2.2.4.3.6,1.4,3.4,2.1,7.2,1.8,11.1Z"/>
  <path d="M64.8,93.1c-.6,0-1.2,0-1.8,0-6.1-.5-11.7-3.4-15.6-8.1-4.3-5.1-6.2-11.7-5.5-18.6,1.4-13.7,13.2-24.1,26.3-23,1,0,2,.2,3,.4,7.1,1.5,13,6.4,16.1,13.3h0s0,0,0,0l.3.6c1.5,3.6,2.1,7.3,1.8,11.2,0,.4-.3,2.7-.4,3.5-2.1,10.7-10.4,18.9-20.7,20.5-1.2.2-2.3.3-3.5.3ZM66.4,43.6c-12.2,0-22.8,9.9-24.1,22.7-.7,6.8,1.2,13.3,5.4,18.3,3.9,4.7,9.4,7.5,15.4,8,1.7.1,3.5,0,5.2-.2,10.1-1.5,18.3-9.6,20.4-20.2.1-.7.4-3,.4-3.4h0c.2-3.8-.4-7.5-1.8-11l-.3-.7h0c-3-6.8-8.8-11.5-15.8-13-1-.2-2-.4-3-.4-.6,0-1.2,0-1.7,0Z"/>
  <path d="M89.2,68.8c-.6,8.3-5.2,16.3-12.3,20.6-.7.4-1.5.9-2.3,1.2-2,1-4.2,1.6-6.4,1.9-1.9-2.4,1.1-5.1-.2-7.7-1.1-2.1-3.2-3-2.9-5.6.2-2.1,2.3-3.7,3.4-5.5,2.2-3.6-.4-4.4-2-8.1-1-2.3-.4-3.8,1.2-5.9,1.8-2.4,2.4-2.3.9-4.8-.9-1.5-2.8-3-3.1-4.7-.4-2.5,1.4-5,4.3-5.9.4-.1.9-.3,1.4-.4,7.2,1.5,13,6.5,15.9,13.2,0,.2.1.4.3.6.7,1,1,2.7,1.2,3.9.5,2.4.7,4.8.5,7.2Z"/>
  <path d="M68.2,92.8h0c-1.1-1.4-.7-2.9-.3-4.3.3-1.2.6-2.4,0-3.5-.4-.7-.9-1.3-1.4-1.9-.9-1.1-1.8-2.1-1.6-3.9.1-1.5,1.1-2.7,2.1-3.9.5-.6,1-1.2,1.3-1.8,1.5-2.4.7-3.5-.4-5.1-.5-.8-1.1-1.6-1.6-2.8-1-2.4-.4-3.9,1.2-6.1.3-.4.6-.7.8-1,1.1-1.4,1.3-1.6,0-3.6-.3-.5-.8-1.1-1.2-1.6-.8-1-1.7-2-1.9-3.2-.4-2.7,1.5-5.2,4.5-6.1.4-.1.9-.2,1.4-.4h0s0,0,0,0c7.2,1.5,13,6.4,16.1,13.3h0c0,.2.1.4.3.6.6.9.9,2.2,1.1,3.3,0,.2,0,.4.1.6.5,2.4.7,4.8.5,7.3h-.2s.2,0,.2,0c-.6,8.6-5.4,16.5-12.4,20.8-.7.5-1.5.9-2.3,1.2-2.1,1-4.2,1.6-6.4,2h-.1ZM71.2,44.1c-.5.1-.9.2-1.3.4-2.8.8-4.6,3.2-4.2,5.7.2,1.1,1,2.1,1.8,3,.4.5.9,1.1,1.3,1.6,1.3,2.2,1.1,2.5,0,4.1-.2.3-.5.6-.8,1-1.5,2.1-2.1,3.4-1.1,5.7.5,1.1,1.1,2,1.6,2.7,1.2,1.7,2,2.9.4,5.6-.4.6-.9,1.2-1.4,1.8-1,1.2-1.9,2.3-2,3.6-.2,1.6.6,2.5,1.5,3.6.5.6,1,1.2,1.4,1.9.7,1.3.3,2.6,0,3.8-.4,1.3-.7,2.6.2,3.7,2.1-.3,4.2-1,6.2-1.9.8-.4,1.5-.8,2.3-1.2,6.9-4.2,11.6-12,12.2-20.5.2-2.5,0-4.9-.5-7.2,0-.2,0-.4-.1-.6-.2-1.1-.5-2.4-1.1-3.2-.2-.2-.3-.5-.3-.7-3-6.8-8.7-11.5-15.7-13Z"/>
  <path class="st1" d="M147.1,85.9c0,.4-.7,2.6-.9,3.4-3.5,10.3-12.9,17.1-23,17.1-1.7,0-3.4-.2-5.2-.6-12.6-3-20.2-16.2-16.9-29.5,3.3-13.3,16.2-21.7,28.9-18.8,1,.2,2,.5,2.9.9,6.9,2.6,11.9,8.5,13.9,15.5h0c0,.2.1.5.2.7.9,3.6,1,7.4.2,11.3Z"/>
  <path d="M123.1,106.5c-1.7,0-3.4-.2-5.1-.6-5.9-1.4-11-5.1-14.2-10.4-3.5-5.7-4.5-12.6-2.8-19.4,3.3-13.4,16.4-21.9,29.1-18.9,1,.2,2,.5,2.9.9,6.8,2.6,11.9,8.3,14,15.6h0s0,0,0,0l.2.6c.9,3.8,1,7.6.2,11.4,0,.4-.7,2.6-.9,3.4-3.5,10.3-12.9,17.2-23.2,17.2,0,0,0,0-.1,0ZM124.8,57c-10.7,0-20.7,7.8-23.5,19.2-1.6,6.7-.7,13.4,2.8,19.1,3.2,5.2,8.2,8.8,14,10.2,1.7.4,3.3.6,5,.6s0,0,.1,0c10.2,0,19.4-6.8,22.8-17,.2-.7.8-3,.9-3.3h0c.8-3.8.7-7.6-.2-11.2l-.2-.7h0c-2-7.2-7-12.8-13.7-15.3-.9-.4-1.9-.7-2.9-.9-1.7-.4-3.4-.6-5.1-.6Z"/>
  <path d="M147.1,85.8c-1.7,8.2-7.4,15.4-15,18.6-.8.3-1.6.6-2.4.9-2.1.6-4.4,1-6.6,1-1.5-2.7,1.8-4.9.9-7.7-.8-2.3-2.7-3.5-2.1-6.1.5-2.1,2.8-3.3,4.1-5,2.7-3.3.2-4.5-.8-8.4-.6-2.5.1-3.8,2-5.7,2.1-2.1,2.7-1.9,1.5-4.7-.7-1.7-2.3-3.4-2.4-5.2,0-2.6,2.1-4.8,5.1-5.2.5,0,.9-.1,1.4-.2,6.9,2.6,11.9,8.5,13.9,15.5,0,.2,0,.4.2.7.5,1.1.6,2.8.7,4,.2,2.4,0,4.9-.5,7.3Z"/>
  <path d="M123.2,106.5h-.2c-.9-1.6-.3-3,.3-4.3.5-1.2,1-2.3.6-3.5-.3-.8-.7-1.4-1.1-2.1-.8-1.2-1.5-2.3-1-4.1.3-1.4,1.5-2.5,2.6-3.5.5-.5,1.1-1,1.6-1.6,1.8-2.2,1.2-3.4.3-5.2-.4-.8-.9-1.8-1.2-3-.7-2.6.2-4,2-5.9.3-.4.7-.6.9-.9,1.3-1.2,1.5-1.4.6-3.6-.2-.6-.6-1.2-1-1.8-.7-1.1-1.4-2.3-1.4-3.5,0-2.7,2.2-5,5.3-5.4.4,0,.9-.1,1.4-.2h0s0,0,0,0c6.8,2.6,11.9,8.3,14,15.7h0c0,.2,0,.4.2.6.5.9.6,2.4.6,3.5,0,.2,0,.4,0,.6.2,2.4,0,4.9-.5,7.3h0c-1.8,8.4-7.6,15.6-15.1,18.8-.8.3-1.6.6-2.4.9-2.2.6-4.4,1-6.6,1ZM132.8,58.5c-.5,0-.9,0-1.3.2-2.9.4-5,2.5-4.9,5,0,1.1.7,2.2,1.4,3.3.4.6.7,1.2,1,1.8,1,2.4.8,2.7-.7,4-.3.2-.6.5-.9.9-1.8,1.8-2.5,3.1-1.9,5.5.3,1.2.8,2.1,1.2,2.9.9,1.9,1.6,3.2-.4,5.6-.5.6-1,1.1-1.6,1.6-1.1,1-2.2,2-2.5,3.3-.4,1.6.3,2.6,1,3.8.4.7.8,1.3,1.1,2.1.5,1.4,0,2.6-.6,3.8-.5,1.3-1,2.5-.4,3.7,2.1,0,4.3-.3,6.4-1,.8-.2,1.6-.5,2.4-.9,7.4-3.1,13.1-10.2,14.8-18.5h0c.5-2.4.7-4.8.5-7.2,0-.2,0-.4,0-.6,0-1.1-.2-2.5-.6-3.4-.1-.3-.2-.5-.2-.7-2-7.2-7-12.8-13.7-15.3ZM147.1,85.8h0,0Z"/>
  <path class="st0" d="M98.1,87.4c-.8,2.9-3.8,4.7-6.8,3.9-3-.8-4.8-3.8-4-6.8.8-2.9,3.8-4.7,6.8-3.9,3,.8,4.8,3.8,4,6.8Z"/>
  <path d="M92.7,91.7c-.5,0-1,0-1.5-.2-1.5-.4-2.8-1.4-3.5-2.7-.8-1.3-1-2.9-.6-4.3.4-1.5,1.3-2.7,2.7-3.5,1.3-.8,2.9-.9,4.4-.5,1.5.4,2.8,1.4,3.5,2.7.8,1.3,1,2.9.6,4.3h0c-.7,2.5-3,4.2-5.6,4.2ZM92.6,80.7c-.9,0-1.8.2-2.7.7-1.2.7-2.1,1.8-2.5,3.2-.4,1.4-.2,2.8.6,4,.7,1.2,1.9,2.1,3.3,2.5,2.9.8,5.8-.9,6.6-3.7.4-1.4.2-2.8-.6-4-.7-1.2-1.9-2.1-3.3-2.5-.5-.1-1-.2-1.4-.2ZM98.1,87.4h0,0Z"/>
  <path class="st1" d="M92.3,84.3c-.2.8-1.1,1.3-1.9,1.1-.8-.2-1.3-1.1-1.1-1.9.2-.8,1.1-1.3,1.9-1.1.8.2,1.3,1.1,1.1,1.9Z"/>
  <path class="st4" d="M111.4,107.4c-.3,1.8-1.5,3.4-3.4,4.4-6.6,3.7-14.8,3.7-22.7,1.9-7.2-1.6-16-5.8-20-12.5-2.7-4.5.7-8.5,5.4-8.9,7-.6,12.2,4.6,18.6,6.2,4.2,1.1,8.8.2,13.1.4,3.1.2,6,1.1,7.8,3.8,1.1,1.5,1.4,3.2,1.2,4.6Z"/>
  <path d="M95.1,115c-3.1,0-6.3-.4-9.7-1.2-7.1-1.6-16-5.7-20.1-12.6-1.1-1.9-1.3-3.9-.4-5.6,1-2,3.3-3.3,5.9-3.5,4.4-.4,8.1,1.5,11.7,3.3,2.2,1.1,4.5,2.3,7,2.9,2.6.7,5.5.6,8.3.4,1.6,0,3.2-.1,4.8,0,3.7.2,6.4,1.5,8,3.8,1,1.5,1.5,3.2,1.2,4.8h0c-.3,1.9-1.5,3.5-3.5,4.6-3.7,2-8.1,3.1-13.1,3.1ZM71.9,92.5c-.4,0-.7,0-1.1,0-2.5.2-4.7,1.5-5.6,3.3-.8,1.6-.7,3.4.4,5.2,4,6.7,12.9,10.8,19.8,12.4,8.9,2,16.7,1.4,22.5-1.9,1.8-1,3-2.5,3.3-4.3h0c.3-1.5-.1-3.1-1.1-4.5-1.5-2.2-4.1-3.5-7.7-3.7-1.5,0-3.2,0-4.7,0-2.8.1-5.7.2-8.4-.5-2.5-.6-4.8-1.8-7.1-2.9-3.4-1.7-6.6-3.3-10.4-3.3ZM111.4,107.4h0,0Z"/>
  <path d="M90.6,106.4c-1.4,0-2.9-.2-4.4-.6-5.7-1.5-9.1-5.6-10.7-7.9,0,0,0-.2,0-.3,0,0,.2,0,.3,0,1.5,2.3,4.9,6.3,10.5,7.8,5.7,1.5,10.7-.4,13.1-1.7,0,0,.2,0,.3,0,0,0,0,.2,0,.3-1.9,1-5.1,2.3-9.1,2.3Z"/>
  <path class="st3" d="M32.6,83.7l-1.5,9.2c-1.6.6-3.2,1.1-4.9,1.6-6.1,1.9-13.5,4.3-19.6,1.3-3.6-1.7-4.6-6-4.6-9.6,0-3.2.8-6.2,1.6-9.3,1.9-7.2,4.5-14.3,7-21.3,1.8-4.9,9.2-1.7,7.5,3.2-2,5.6-4.1,11.3-5.8,17-1.2,4.2-4,12.6,1.1,12.8,4,.2,8.4-1.2,12.1-2.5,2.3-.8,4.6-1.6,6.9-2.5Z"/>
  <path class="st1" d="M19.4,60.8s3,5.6-4.6,4.2c-7.7-1.3-10.8-3-6.4-5.9,0,0-6.7-2.1-.1-20.4.3-.9.9-2,1.9-2.1,1.3-.2,2.9.7,1.8,10.3,0,0,1.7-13.7,5.1-12.6.7.2,1,.9,1.2,1.6.3,1.5-.2,7.5-1.1,11.8,0,0,2-8,3.6-10.3,1.6-2.3,4-2.4,3.4,2.8-.2,1.4-.4,2.7-.8,4l-1.5,6c0,0,0,.1,0,0,.8-1,4.7-5.3,6.7-3.3,1.4,1.4-2.3,12.9-9.2,13.8Z"/>
  <path d="M16.9,65.4c-.6,0-1.3,0-2.2-.2-5.7-1-8.3-2-8.6-3.5-.2-.8.4-1.7,1.8-2.6-.4-.2-1.2-.8-1.8-2.1-1.2-2.5-1.9-7.7,1.9-18.5.3-1,1-2.1,2.1-2.3.6,0,1,0,1.4.4.8.8,1.1,2.6,1,5.7.7-3.2,1.8-7.1,3.3-8.2.4-.3.8-.3,1.3-.2.6.2,1.1.9,1.3,1.8.2,1.1,0,4.6-.4,8,.7-2.4,1.7-5.3,2.6-6.6.9-1.3,1.9-1.8,2.7-1.5.6.2,1.5,1.1,1.1,4.5-.2,1.3-.4,2.6-.8,4.1l-1.4,5.4c1.1-1.2,3.2-3.3,5.1-3.4.6,0,1.1.2,1.5.6.7.7.3,3-.3,4.7-1.3,3.9-4.4,8.7-8.7,9.5.3.6.9,2.3,0,3.4-.5.7-1.5,1.1-2.9,1.1ZM10.4,36.7c0,0-.1,0-.2,0-.9.1-1.5,1.3-1.7,2-3.8,10.6-3.2,15.7-2,18.1.8,1.7,1.9,2,2,2h.4c0,.1-.4.4-.4.4-1.4.9-2,1.7-1.9,2.4.3,1.6,4.9,2.5,8.3,3.1,2.5.4,4,.2,4.7-.7.9-1.2-.2-3.2-.2-3.2v-.3c-.1,0,.2,0,.2,0,4.3-.6,7.4-5.3,8.7-9.2.8-2.3.8-3.9.4-4.3-.3-.3-.7-.5-1.2-.5-2,0-4.7,3.1-5.2,3.7,0,0-.2.1-.3,0-.1,0-.2-.2-.1-.3l1.5-6c.4-1.4.6-2.7.8-4,.4-3.3-.4-3.9-.8-4.1-.6-.2-1.5.3-2.2,1.4-1.6,2.3-3.6,10.2-3.6,10.3h-.4c.9-4.2,1.4-10.3,1.1-11.8-.1-.8-.5-1.3-1-1.5-.3-.1-.6,0-.9.1-2.6,1.6-3.9,12.2-3.9,12.3h-.4c.6-5.6.4-8.9-.6-9.8-.2-.2-.5-.3-.8-.3Z"/>
  <path d="M19.6,48.3s0,0,0,0l-10-1.7c-.1,0-.2-.1-.2-.2,0-.1.1-.2.2-.2l10,1.7c.1,0,.2.1.2.2,0,0-.1.2-.2.2Z"/>
  <path d="M14.7,54.9s0,0,0,0c-.1,0-.2-.1-.2-.2.4-1.7,1.2-3,2.4-3.8,2.2-1.4,4.9-.8,5-.8.1,0,.2.1.2.2,0,.1-.1.2-.2.2,0,0-2.6-.6-4.7.7-1.2.7-1.9,1.9-2.3,3.6,0,0-.1.2-.2.2Z"/>
  <path d="M18.2,61.1c-.3,0-.6,0-.9,0-1.1-.1-1.9-.5-2.2-.6-.1,0-.1-.2,0-.3,0-.1.2-.1.3,0,.3.2,1.1.5,2.1.6.8.1,1.7,0,2.1,0,.1,0,.2,0,.2.2,0,.1,0,.2-.2.2-.4,0-.8,0-1.3,0Z"/>
  <path d="M11,59.9s0,0,0,0c-.4,0-.9-.1-1.3-.2-.5,0-.9-.2-1.4-.4-.1,0-.2-.1-.1-.3,0-.1.1-.2.3-.1.4.1.9.3,1.4.4.4,0,.8.2,1.2.2.1,0,.2.1.2.2,0,.1-.1.2-.2.2Z"/>
  <path class="st1" d="M138.6,110.4c2.2-1.3-.2-4.6-2-2.9,0,0,0-.7-.4-1.1-.4-.4-1.1-.4-1.6,0-.4.3-.6.8-.5,1.4h0c-1-.2-2,.2-2.3,1-.2.5-.3,1.2.1,1.7.3.4.7.6.9.6-.5.9-.3,2.1.4,2.8.8.7,2.4.3,3.1-.9,1.2,1.4,2.7.4,2.9-.7.2-1-.6-1.8-.6-1.9Z"/>
  <path d="M134.2,114.4c-.4,0-.8-.1-1.1-.4-.7-.7-.9-1.8-.5-2.8-.2-.1-.5-.3-.8-.6-.5-.7-.4-1.4-.1-1.9.4-.8,1.3-1.3,2.3-1.1,0-.5.2-1,.6-1.3.5-.4,1.3-.5,1.9,0,.3.3.4.6.4.8.5-.3,1-.4,1.5-.2.7.3,1.3,1,1.4,1.9,0,.7-.2,1.2-.8,1.6.3.3.7,1.1.5,1.9-.2.7-.8,1.3-1.5,1.5-.6.1-1.1,0-1.6-.5-.4.6-1,1-1.7,1.1-.1,0-.3,0-.4,0ZM133.6,107.9c-.7,0-1.3.4-1.6.9-.2.4-.2,1,.1,1.5.2.4.6.5.8.6h.2c0,0-.1.3-.1.3-.5.8-.3,1.9.3,2.5.3.3.7.4,1.2.3.7-.1,1.3-.6,1.6-1.1v-.3c.1,0,.3.2.3.2.5.6,1,.7,1.4.6.6-.1,1.1-.6,1.2-1.2.2-.9-.6-1.7-.6-1.7l-.2-.2h.2c.5-.4.8-.9.8-1.5,0-.7-.5-1.3-1.1-1.5-.3-.1-.9-.2-1.4.4l-.4.4v-.6c0,0,.1-.6-.2-.9-.4-.4-1-.3-1.3,0-.3.3-.5.7-.4,1.2v.3c.1,0-.2-.1-.2-.1-.2,0-.3,0-.5,0Z"/>
  <path class="st1" d="M134.5,110.2c.6-.2,1.1-.4,1.6-.8-.2.3-.4.6-.5.9-.1.3-.2.7,0,1,0,.3.3.6.6.7"/>
  <path d="M136.2,112.1s0,0,0,0c-.4,0-.7-.4-.8-.8-.1-.4,0-.8,0-1.1,0,0,0-.1,0-.2-.3.2-.6.3-.9.4-.1,0-.2,0-.2-.1,0-.1,0-.2.1-.2.5-.1,1.1-.4,1.5-.8l1-.8-.7,1c-.2.3-.3.5-.5.8,0,.2-.2.5,0,.8,0,.3.3.5.5.5.1,0,.2.1.2.2,0,0-.1.2-.2.2Z"/>
  <path class="st1" d="M151.3,115.7c0,2.6,4,2,3.4-.5,0,0,.6.4,1.1.2.6-.2.9-.9.8-1.4,0-.5-.4-.9-.9-1.1h0c.7-.8.8-1.9.3-2.6-.3-.4-.9-.8-1.5-.7-.5,0-.9.4-1,.5-.6-.9-1.6-1.3-2.5-.9-1,.4-1.4,2.1-.7,3.2-1.7.4-1.6,2.3-.9,3,.7.7,1.8.3,1.9.3Z"/>
  <path d="M152.9,117.6c-.3,0-.6,0-.9-.2-.6-.3-.9-.8-1-1.4-.4,0-1.3.1-1.9-.4-.5-.5-.7-1.3-.5-2,.2-.6.6-1,1.2-1.3-.3-.6-.3-1.4-.1-2.1.2-.6.6-1,1.1-1.2.9-.4,2,0,2.6.8.2-.2.5-.4.9-.4.8-.1,1.4.3,1.7.8.5.7.4,1.8-.1,2.6.4.2.7.7.8,1.1,0,.6-.2,1.4-.9,1.7-.3.1-.7,0-.9,0,0,.6-.2,1.1-.6,1.5-.4.3-.9.5-1.4.5ZM151.5,115.4v.3c0,.6.3,1.1.8,1.3.6.3,1.3.2,1.8-.2.4-.4.6-.9.4-1.5v-.5c-.1,0,.3.3.3.3,0,0,.5.3.9.2.5-.2.7-.8.6-1.2,0-.4-.3-.8-.8-.9h-.4s.2-.3.2-.3c.6-.7.7-1.7.3-2.3-.3-.4-.8-.7-1.3-.6-.4,0-.7.3-.9.5l-.2.2v-.2c-.6-.8-1.6-1.2-2.4-.8-.4.1-.7.5-.8,1-.2.7-.1,1.4.2,1.9l.2.2h-.3c-.8.2-1.1.7-1.2,1.1-.2.6,0,1.3.4,1.6.6.6,1.6.3,1.7.3h.3Z"/>
  <path class="st1" d="M153.4,112.1c-.1.6-.2,1.2,0,1.8-.1-.3-.3-.6-.5-.8-.2-.3-.5-.5-.8-.5-.3,0-.7,0-.9.3"/>
  <path d="M153.7,115.1l-.6-1.1c-.1-.3-.3-.6-.5-.8-.1-.2-.4-.4-.7-.5-.3,0-.5,0-.7.2,0,0-.2.1-.3,0,0,0-.1-.2,0-.3.2-.3.7-.4,1.1-.3.4,0,.7.4.9.6,0,0,0,0,0,.1,0-.3,0-.7.1-1,0-.1.1-.2.2-.1.1,0,.2.1.1.2-.1.6-.2,1.2,0,1.7l.2,1.2Z"/>
  <path class="st1" d="M150.2,111.7c2.2-1.2-.1-4.6-2-2.9,0,0,0-.7-.3-1.1-.4-.4-1.1-.4-1.6,0-.4.3-.6.8-.5,1.4h0c-1-.2-2,.2-2.3,1-.2.5-.3,1.2.1,1.7.3.4.7.6.9.6-.5.9-.4,2.1.4,2.8.8.8,2.4.3,3.1-.9,1.1,1.4,2.7.4,3-.6.2-1-.5-1.8-.6-1.9Z"/>
  <path d="M145.8,115.7c-.5,0-.9-.1-1.2-.4-.7-.7-.9-1.8-.5-2.8-.2-.1-.5-.3-.8-.6-.4-.7-.3-1.4-.1-1.9.4-.8,1.3-1.3,2.3-1.1,0-.5.2-1,.6-1.3.5-.4,1.3-.5,1.9,0,.3.3.4.6.4.8.5-.3,1-.4,1.5-.2.7.3,1.3,1.1,1.3,1.9,0,.7-.2,1.2-.8,1.6.3.3.7,1.1.5,1.9-.2.7-.8,1.3-1.5,1.4-.6.1-1.1,0-1.6-.5-.4.6-1,1-1.7,1.1-.1,0-.2,0-.4,0ZM145.2,109.2c-.7,0-1.3.3-1.6.9-.2.4-.2,1,0,1.5.2.4.6.5.8.6h.2c0,0-.1.3-.1.3-.5.8-.3,1.9.3,2.5.3.3.7.4,1.2.3.7-.1,1.3-.5,1.6-1.1v-.3c.1,0,.3.2.3.2.5.6,1,.7,1.4.6.6-.1,1.1-.6,1.2-1.1.2-.8-.5-1.7-.6-1.7l-.2-.2h.2c.5-.4.8-.9.8-1.5,0-.7-.5-1.3-1.1-1.5-.3-.1-.9-.2-1.4.3l-.4.4v-.6c0,0,.2-.6-.2-.9-.4-.4-1-.3-1.3,0-.3.3-.5.7-.4,1.2v.3c.1,0-.2-.1-.2-.1-.2,0-.4,0-.5,0Z"/>
  <path class="st1" d="M146.1,111.5c.6-.1,1.1-.4,1.6-.8-.2.3-.4.5-.5.9-.1.3-.2.7,0,1,0,.3.3.6.6.7"/>
  <path d="M147.7,113.4s0,0,0,0c-.4,0-.7-.4-.8-.8-.1-.4,0-.8.1-1.1,0,0,0-.1,0-.2-.3.2-.6.3-.9.4-.1,0-.2,0-.2-.1,0-.1,0-.2.1-.2.5-.1,1.1-.4,1.5-.7l1-.8-.7,1c-.2.3-.4.5-.5.8,0,.2-.2.5,0,.8,0,.3.3.5.5.5.1,0,.2.1.2.2,0,0-.1.2-.2.2Z"/>
  <path class="st1" d="M154.6,118.2c-1.9.6-.6,3.8,1.1,2.7,0,0-.2.6,0,1,.3.4.9.5,1.3.3.4-.2.6-.6.6-1h0c.8.4,1.6.2,2-.4.2-.3.4-.9.2-1.4-.2-.4-.5-.6-.6-.7.6-.7.6-1.6.1-2.3-.5-.7-1.9-.6-2.6.2-.7-1.3-2.1-.8-2.5,0-.3.7.1,1.6.2,1.7Z"/>
  <path d="M156.7,122.4c-.4,0-.7-.1-1-.5-.2-.2-.2-.5-.2-.7-.4.1-.8.1-1.2-.1-.6-.4-.9-1.1-.8-1.8,0-.5.4-1,.9-1.2-.2-.3-.4-1,0-1.6.2-.5.9-.9,1.5-.9.5,0,.9.2,1.2.7.4-.4,1-.6,1.5-.6.5,0,.9.2,1.2.6.5.7.5,1.6,0,2.4.2.1.4.3.5.6.3.6,0,1.3-.2,1.6-.4.6-1.3.8-2,.6,0,.4-.3.7-.7.9-.2,0-.4.1-.6.1ZM156.1,120.4l-.2.5s-.1.5,0,.8c.2.3.7.4,1,.2.3-.1.5-.5.5-.8v-.4c0,0,.3.2.3.2.7.3,1.4.2,1.8-.3.2-.3.3-.8.2-1.2-.1-.3-.4-.5-.5-.6h-.2c0-.1.2-.3.2-.3.5-.6.5-1.4.1-2-.2-.3-.5-.4-.9-.4-.5,0-1.1.2-1.4.6l-.2.2v-.3c-.4-.5-.7-.7-1.2-.7-.4,0-.9.3-1.1.7-.3.6.2,1.4.2,1.5v.2c.1,0-.1,0-.1,0-.5.2-.8.5-.8.9,0,.5.2,1.1.6,1.4.2.2.6.3,1.2,0l.5-.3Z"/>
  <path class="st1" d="M157.9,119c-.5,0-1,.1-1.4.4.2-.2.4-.4.5-.6.1-.2.2-.5.2-.8,0-.3-.2-.5-.4-.6"/>
  <path d="M155.5,120.1l.9-.9c.2-.2.4-.4.5-.6,0-.2.2-.4.2-.6,0-.2-.1-.4-.3-.5-.1,0-.1-.2-.1-.3,0-.1.2-.1.3-.1.3.1.5.5.5.8,0,.4-.1.7-.3.9,0,0,0,0,0,0,.2,0,.5,0,.7-.1.1,0,.2,0,.2.2,0,.1,0,.2-.2.2-.5,0-.9.1-1.3.3l-1.1.5Z"/>
  <path class="st1" d="M139.2,109.2c-1.9.6-.6,3.8,1.1,2.7,0,0-.2.6,0,1,.3.4.9.5,1.3.3.4-.2.6-.6.6-1h0c.8.4,1.6.2,2-.4.2-.3.4-.9.2-1.4-.2-.4-.5-.6-.6-.7.6-.7.6-1.6.1-2.3-.5-.7-1.9-.6-2.6.2-.7-1.3-2.1-.8-2.5,0-.3.7.1,1.6.2,1.7Z"/>
  <path d="M141.2,113.4c-.4,0-.7-.1-1-.5-.2-.2-.2-.5-.2-.7-.4.1-.8.1-1.2-.1-.6-.4-.9-1.1-.8-1.8,0-.5.4-1,.9-1.2-.2-.3-.4-1,0-1.6.2-.5.9-.9,1.5-.9.5,0,.9.2,1.2.7.4-.4,1-.6,1.5-.6.5,0,.9.2,1.2.6.5.7.5,1.6,0,2.4.2.1.4.3.5.6.3.6,0,1.3-.2,1.6-.4.6-1.3.8-2,.6,0,.4-.3.7-.7.9-.2,0-.4.1-.6.1ZM140.7,111.4l-.2.5s-.1.5,0,.8c.2.3.7.4,1,.2.3-.1.5-.5.5-.8v-.4c0,0,.3.2.3.2.7.3,1.4.2,1.8-.3.2-.3.3-.8.2-1.2-.1-.3-.4-.5-.5-.6h-.2c0-.1.2-.3.2-.3.5-.6.5-1.4.1-2-.2-.3-.5-.4-.9-.4-.5,0-1.1.2-1.4.6l-.2.2v-.3c-.4-.5-.7-.7-1.2-.7-.4,0-.9.3-1.1.7-.3.6.1,1.4.2,1.5v.2c.1,0-.1,0-.1,0-.5.2-.8.5-.8.9,0,.5.2,1.1.6,1.4.2.2.6.3,1.2,0l.5-.3Z"/>
  <path class="st1" d="M142.5,110.1c-.5,0-1,.1-1.4.4.2-.2.4-.4.5-.6.1-.2.2-.5.2-.8,0-.3-.2-.5-.4-.6"/>
  <path d="M140,111.2l.9-.9c.2-.2.4-.4.5-.6,0-.2.2-.4.2-.6,0-.2-.1-.4-.3-.5-.1,0-.1-.2-.1-.3,0-.1.2-.1.3-.1.3.1.5.5.5.8,0,.4-.1.7-.3.9,0,0,0,0,0,0,.2,0,.5,0,.7-.1.1,0,.2,0,.2.2,0,.1,0,.2-.2.2-.5,0-.9.1-1.3.3l-1.1.5Z"/>
  <path class="st1" d="M127.6,109.4c-1.9.6-.6,3.8,1.1,2.7,0,0-.2.6,0,1,.3.4.9.5,1.3.3.4-.2.6-.6.6-1h0c.8.4,1.6.2,2-.4.2-.3.4-.9.2-1.4-.2-.4-.5-.6-.6-.7.6-.7.6-1.6.1-2.3-.5-.7-1.9-.6-2.6.2-.7-1.3-2.1-.8-2.5,0-.3.7.1,1.6.2,1.7Z"/>
  <path d="M129.7,113.6c-.4,0-.7-.1-1-.5-.2-.2-.2-.5-.2-.7-.4.1-.8.1-1.2-.1-.6-.4-.9-1.1-.8-1.8,0-.5.4-1,.9-1.2-.2-.3-.4-1,0-1.6.2-.5.9-.9,1.5-.9.5,0,.9.2,1.2.7.4-.4,1-.6,1.5-.6.5,0,.9.2,1.2.6.5.7.5,1.6,0,2.4.2.1.4.3.5.6.3.6,0,1.3-.2,1.6-.4.6-1.3.8-2,.6,0,.4-.3.7-.7.9-.2,0-.4.1-.6.1ZM129.2,111.6l-.2.5s-.1.5,0,.8c.2.3.7.4,1,.2.3-.1.5-.5.5-.8v-.4s.3.2.3.2c.7.3,1.4.2,1.8-.3.2-.3.3-.8.2-1.2-.1-.3-.4-.5-.5-.6h-.2c0-.1.2-.3.2-.3.5-.6.5-1.4.1-2-.2-.3-.5-.4-.9-.4-.5,0-1.1.2-1.4.6l-.2.2v-.3c-.4-.5-.7-.7-1.2-.7-.4,0-.9.3-1.1.7-.3.6.2,1.4.2,1.5v.2c.1,0-.1,0-.1,0-.5.2-.8.5-.8.9,0,.5.2,1.1.6,1.4.2.2.6.3,1.2,0l.5-.3Z"/>
  <path class="st1" d="M130.9,110.3c-.5,0-1,.1-1.4.4.2-.2.4-.4.5-.6s.2-.5.2-.8c0-.3-.2-.5-.4-.6"/>
  <path d="M128.5,111.4l.9-.9c.2-.2.4-.4.5-.6,0-.2.2-.4.2-.6,0-.2-.1-.4-.3-.5-.1,0-.1-.2-.1-.3,0-.1.2-.1.3-.1.3.1.5.5.5.8,0,.4-.1.7-.3.9,0,0,0,0,0,0,.2,0,.5,0,.7-.1.1,0,.2,0,.2.2,0,.1,0,.2-.2.2-.5,0-.9.1-1.3.3l-1.1.5Z"/>
  <path class="st1" d="M156.7,117.2c2.2-1.3-.2-4.6-2-2.9,0,0,0-.7-.4-1.1-.4-.4-1.1-.4-1.6,0-.4.3-.6.8-.5,1.4h0c-1-.2-2,.2-2.3,1-.2.5-.3,1.2.1,1.7.3.4.7.6.9.6-.5.9-.3,2.1.4,2.8.8.7,2.4.3,3.1-.9,1.2,1.4,2.7.4,2.9-.7.2-1-.6-1.8-.6-1.9Z"/>
  <path d="M152.3,121.3c-.4,0-.8-.1-1.1-.4-.7-.7-.9-1.8-.5-2.8-.2-.1-.5-.3-.8-.6-.4-.7-.4-1.4-.1-1.9.4-.8,1.3-1.3,2.3-1.1,0-.5.2-1,.6-1.3.5-.4,1.3-.5,1.9,0,.3.3.4.6.4.8.5-.3,1-.4,1.5-.2.7.3,1.3,1,1.4,1.9,0,.7-.2,1.2-.8,1.6.3.3.7,1.1.5,1.9-.2.7-.8,1.3-1.5,1.5-.6.1-1.1,0-1.6-.5-.4.6-1,1-1.7,1.1-.1,0-.3,0-.4,0ZM151.7,114.8c-.7,0-1.3.4-1.6.9-.2.4-.2,1,.1,1.5.2.4.6.5.8.6h.2c0,0-.1.3-.1.3-.5.8-.3,1.9.4,2.5.3.3.7.4,1.2.3.7-.1,1.3-.6,1.6-1.1v-.3c.1,0,.3.2.3.2.5.6,1,.7,1.4.6.6-.1,1.1-.6,1.2-1.2.2-.9-.5-1.6-.6-1.7l-.2-.2h.2c.5-.4.8-.9.8-1.5,0-.7-.5-1.3-1.1-1.5-.3-.1-.9-.2-1.4.4l-.4.4v-.6c0,0,.1-.6-.2-.9-.4-.4-1-.3-1.3,0-.3.3-.5.7-.4,1.1v.3c.1,0-.2,0-.2,0-.2,0-.3,0-.5,0Z"/>
  <path class="st1" d="M152.6,117.1c.6-.2,1.1-.4,1.6-.8-.2.3-.4.6-.5.9s-.2.7,0,1c0,.3.3.6.6.7"/>
  <path d="M154.3,119s0,0,0,0c-.4,0-.7-.4-.8-.8-.1-.4,0-.8,0-1.1,0,0,0-.1,0-.2-.3.2-.6.3-.9.4-.1,0-.2,0-.2-.1,0-.1,0-.2.1-.2.5-.1,1.1-.4,1.5-.8l1-.8-.7,1c-.2.3-.3.5-.5.8,0,.2-.2.5,0,.8,0,.3.3.5.5.5.1,0,.2.1.2.2,0,0-.1.2-.2.2Z"/>
  <path class="st1" d="M144.6,115.3c2.3-1.3-.2-5-2.2-3.1,0,0,0-.8-.4-1.2-.5-.4-1.2-.4-1.7,0-.4.3-.6.9-.5,1.5h0c-1.1-.3-2.1.2-2.5,1.1-.2.5-.3,1.3.1,1.8.3.5.8.6,1,.7-.5,1-.4,2.2.4,3,.9.8,2.6.3,3.3-1,1.2,1.5,2.9.4,3.2-.7.2-1-.6-2-.7-2.1Z"/>
  <path d="M139.9,119.6c-.5,0-.9-.2-1.2-.4-.8-.7-1-2-.6-3-.3-.1-.6-.3-.8-.7-.5-.7-.4-1.5-.2-2,.4-.9,1.4-1.4,2.5-1.2,0-.6.2-1.1.6-1.4.5-.4,1.4-.5,2,0,.3.3.4.6.4.9.5-.3,1.1-.4,1.6-.2.8.3,1.4,1.1,1.5,2,0,.7-.2,1.3-.8,1.8.3.4.8,1.2.6,2.1-.2.7-.8,1.4-1.6,1.6-.6.1-1.2,0-1.7-.5-.4.6-1.1,1.1-1.8,1.2-.1,0-.3,0-.4,0ZM139.2,112.6c-.8,0-1.4.4-1.7,1-.2.4-.2,1.1.1,1.6.3.4.6.5.9.6h.2c0,0-.1.3-.1.3-.5.9-.3,2.1.4,2.7.3.3.8.4,1.3.3.7-.1,1.4-.6,1.7-1.2v-.3c.1,0,.3.2.3.2.6.7,1.1.7,1.5.6.6-.1,1.2-.7,1.3-1.3.2-.9-.6-1.8-.6-1.9l-.2-.2h.2c.6-.5.9-1,.8-1.6,0-.7-.6-1.4-1.2-1.6-.4-.1-.9-.2-1.5.4l-.4.4v-.6c0,0,.1-.7-.2-1-.4-.4-1.1-.3-1.4,0-.4.3-.5.8-.5,1.3v.3c0,0-.2,0-.2,0-.2,0-.4,0-.5,0Z"/>
  <path class="st1" d="M140.2,115.1c.6-.2,1.2-.5,1.7-.9-.2.3-.4.6-.5.9-.1.3-.2.7,0,1,0,.3.4.6.7.7"/>
  <path d="M142,117.1s0,0,0,0c-.4,0-.7-.4-.8-.9-.1-.4,0-.9,0-1.2,0,0,0-.1,0-.2-.3.2-.7.3-1,.4-.1,0-.2,0-.2-.1,0-.1,0-.2.1-.2.6-.2,1.1-.4,1.6-.8l1-.8-.7,1c-.2.3-.4.6-.5.9,0,.2-.2.6,0,.9,0,.3.3.5.5.6.1,0,.2.1.2.2,0,0-.1.2-.2.2Z"/>
  <path class="st1" d="M132,114.3c2.2-1.3-.2-4.6-2-2.9,0,0,0-.7-.4-1.1-.4-.4-1.1-.4-1.6,0-.4.3-.6.8-.5,1.4h0c-1-.2-2,.2-2.3,1-.2.5-.3,1.2.1,1.7.3.4.7.6.9.6-.5.9-.3,2.1.4,2.8.8.7,2.4.3,3.1-.9,1.2,1.4,2.7.4,2.9-.7.2-1-.6-1.8-.6-1.9Z"/>
  <path d="M127.7,118.3c-.4,0-.8-.1-1.1-.4-.7-.7-.9-1.8-.5-2.8-.2-.1-.5-.3-.8-.6-.4-.7-.4-1.4-.1-1.9.4-.8,1.3-1.3,2.3-1.1,0-.5.2-1,.6-1.3.5-.4,1.3-.5,1.9,0,.3.3.4.6.4.8.5-.3,1-.4,1.5-.2.7.3,1.3,1,1.4,1.9,0,.7-.2,1.2-.8,1.6.3.3.7,1.1.5,1.9-.2.7-.8,1.3-1.5,1.5-.6.1-1.1,0-1.6-.5-.4.6-1,1-1.7,1.1-.1,0-.3,0-.4,0ZM127,111.8c-.7,0-1.3.4-1.6.9-.2.4-.2,1,.1,1.5.2.4.6.5.8.6h.2c0,0-.1.3-.1.3-.5.8-.3,1.9.4,2.5.3.3.7.4,1.2.3.7-.1,1.3-.6,1.6-1.1v-.3c.1,0,.3.2.3.2.5.6,1,.7,1.4.6.6-.1,1.1-.6,1.2-1.2.2-.9-.5-1.6-.6-1.7l-.2-.2h.2c.5-.4.8-.9.8-1.5,0-.7-.5-1.3-1.1-1.5-.3-.1-.9-.2-1.4.4l-.4.4v-.6c0,0,.1-.6-.2-.9-.4-.4-1-.3-1.3,0-.3.3-.5.7-.4,1.1v.3c.1,0-.2,0-.2,0-.2,0-.3,0-.5,0Z"/>
  <path class="st1" d="M128,114.1c.6-.2,1.1-.4,1.6-.8-.2.3-.4.6-.5.9-.1.3-.2.7,0,1,0,.3.3.6.6.7"/>
  <path d="M129.6,116s0,0,0,0c-.4,0-.7-.4-.8-.8-.1-.4,0-.8,0-1.1,0,0,0-.1,0-.2-.3.2-.6.3-.9.4-.1,0-.2,0-.2-.1,0-.1,0-.2.1-.2.5-.1,1.1-.4,1.5-.8l1-.8-.7,1c-.2.3-.3.5-.5.8,0,.2-.2.5,0,.8,0,.3.3.5.5.5.1,0,.2.1.2.2,0,0-.1.2-.2.2Z"/>
  <path class="st1" d="M145.6,114.8c-2.2-1.1-3.6,2.8-1.2,3.3,0,0-.6.3-.7.9,0,.6.3,1.2.9,1.4.5.2,1,0,1.4-.3h0c.4,1,1.3,1.6,2.1,1.4.5,0,1.1-.4,1.3-1.1.2-.5,0-1,0-1.1,1,0,1.9-.9,2-1.9.2-1.1-1.1-2.2-2.4-2.1.5-1.8-1.2-2.5-2.2-2.2-.9.3-1.2,1.5-1.2,1.6Z"/>
  <path d="M147.8,121.7c-.8,0-1.5-.5-1.9-1.3-.4.3-.9.4-1.4.2-.6-.2-1.1-.8-1-1.6,0-.4.3-.7.5-.8-.5-.2-.9-.7-1-1.2-.2-.8.2-1.8.8-2.3.5-.4,1.1-.4,1.7-.2.1-.4.5-1.2,1.3-1.5.6-.2,1.4,0,1.9.4.3.3.7.8.5,1.7.6,0,1.3.3,1.8.8.4.5.7,1,.6,1.6-.1,1-.9,1.8-1.9,2,0,.3,0,.6,0,1-.3.8-1,1.1-1.5,1.2,0,0-.2,0-.3,0ZM146.1,119.6v.4c.4.9,1.2,1.4,2,1.3.4,0,.9-.4,1.2-.9.2-.4,0-.8,0-1v-.2c0,0,.2,0,.2,0,.9,0,1.7-.8,1.8-1.7,0-.4-.1-.9-.5-1.2-.5-.5-1.1-.7-1.7-.7h-.3s0-.3,0-.3c.2-.8,0-1.3-.4-1.6-.4-.4-1.1-.5-1.5-.3-.8.3-1.1,1.4-1.1,1.5v.3c0,0-.3-.1-.3-.1-.7-.3-1.2-.1-1.5,0-.5.4-.8,1.2-.7,1.8,0,.4.3.9,1.1,1h.5c0,.1-.5.4-.5.4,0,0-.5.3-.6.8,0,.5.3,1,.7,1.1.4.1.8,0,1.2-.3l.2-.3Z"/>
  <path class="st1" d="M147.7,118.4c-.4-.4-1-.7-1.5-.9.3,0,.6,0,1,0,.3,0,.6-.2.8-.5.2-.3.3-.6.2-.9"/>
  <path d="M147.7,118.6s0,0-.1,0c-.4-.4-.9-.7-1.4-.9l-1.1-.4h1.2c.3,0,.6,0,.9,0,.2,0,.5-.2.7-.4.2-.2.2-.5.1-.7,0-.1,0-.2.1-.3.1,0,.2,0,.3.1.1.4,0,.8-.2,1.1-.3.3-.7.5-.9.5,0,0-.1,0-.2,0,.3.2.6.4.8.6,0,0,0,.2,0,.3,0,0,0,0-.1,0Z"/>
  <path class="st1" d="M134.4,119.7c1,2.3,4.5.3,3-1.8,0,0,.7.1,1.1-.3.5-.4.5-1.1.2-1.6-.3-.4-.7-.7-1.2-.6h0c.3-1,0-2-.7-2.5-.4-.3-1.1-.4-1.7,0-.5.3-.7.7-.7.9-.8-.6-2-.5-2.7.1-.8.8-.5,2.5.5,3.2-1.5,1.1-.7,2.7.3,3.1.9.3,1.8-.4,1.9-.5Z"/>
  <path d="M135.8,121s0,0-.1,0c-.6,0-1.1-.4-1.4-.9-.4.2-1.1.6-1.9.4-.6-.2-1.1-.9-1.2-1.6,0-.6.2-1.2.7-1.7-.5-.4-.8-1.1-.9-1.8,0-.6.1-1.2.5-1.6.7-.7,1.9-.8,2.8-.3.1-.2.3-.5.7-.7.7-.4,1.4-.2,1.9,0,.7.5,1.1,1.5.8,2.5.5,0,.9.3,1.2.7.3.5.3,1.4-.2,1.9-.3.3-.6.3-.9.3.3.5.3,1.1,0,1.7-.4.7-1.1,1.1-1.9,1.1ZM134.5,119.4v.3c.4.7.9.9,1.3.9.6,0,1.3-.4,1.6-.9.3-.5.2-1.1-.2-1.6l-.3-.4h.5c0,.1.6.2.9,0,.4-.4.4-1,.2-1.4-.2-.4-.6-.6-1-.5h-.4c0,0,.1-.3.1-.3.3-.9,0-1.9-.6-2.2-.4-.2-1-.3-1.5,0-.4.2-.6.6-.6.8v.2c0,0-.3-.2-.3-.2-.8-.5-1.8-.5-2.4.1-.3.3-.4.7-.4,1.2,0,.7.4,1.3.9,1.7l.2.2-.2.2c-.7.5-.8,1.1-.7,1.5,0,.6.5,1.1,1,1.3.8.3,1.6-.4,1.7-.4l.2-.2Z"/>
  <path class="st1" d="M135,115.6c0,.6.3,1.2.6,1.7-.2-.2-.5-.4-.8-.6-.3-.2-.6-.2-.9-.2-.3,0-.6.3-.7.6"/>
  <path d="M136.4,118.2l-.9-.8c-.2-.2-.5-.4-.7-.5-.2-.1-.5-.2-.8-.2-.3,0-.5.2-.6.5,0,.1-.1.2-.3.1-.1,0-.2-.1-.1-.3.1-.4.5-.7.9-.7.4,0,.8,0,1.1.2,0,0,0,0,.1,0-.1-.3-.2-.7-.2-1,0-.1,0-.2.2-.2.1,0,.2,0,.2.2,0,.6.3,1.1.6,1.6l.6,1.1Z"/>
  <path class="st1" d="M124.7,116.6c1,2.3,4.5.3,3-1.8,0,0,.7.1,1.1-.3.5-.4.5-1.1.2-1.6-.3-.4-.7-.7-1.2-.6h0c.3-1,0-2-.7-2.5-.4-.3-1.1-.4-1.7,0-.5.3-.7.7-.7.9-.8-.6-2-.5-2.7.1-.8.8-.5,2.5.5,3.2-1.5,1.1-.7,2.7.3,3.1.9.3,1.8-.4,1.9-.5Z"/>
  <path d="M126.1,117.8s0,0-.1,0c-.6,0-1.1-.4-1.4-.9-.4.2-1.1.6-1.9.4-.6-.2-1.1-.9-1.2-1.6,0-.6.2-1.2.7-1.7-.5-.4-.8-1.1-.9-1.8,0-.6.1-1.2.5-1.6.7-.7,1.9-.8,2.8-.3.1-.2.3-.5.7-.7.7-.4,1.4-.2,1.9,0,.7.5,1.1,1.5.8,2.5.5,0,.9.3,1.2.7.3.5.3,1.4-.2,1.9-.3.3-.6.3-.9.3.3.5.3,1.1,0,1.7-.4.7-1.1,1.1-1.9,1.1ZM124.8,116.2v.3c.4.7.9.9,1.3.9.6,0,1.3-.4,1.6-.9.3-.5.2-1.1-.2-1.6l-.3-.4h.5c0,.1.6.2.9,0,.4-.4.4-1,.2-1.4-.2-.4-.6-.6-1.1-.5h-.4c0,0,.2-.3.2-.3.3-.9,0-1.9-.6-2.2-.4-.2-1-.3-1.5,0-.4.2-.6.6-.6.8v.2c0,0-.3-.2-.3-.2-.8-.5-1.8-.5-2.4.1-.3.3-.4.7-.4,1.2,0,.7.4,1.3.9,1.7l.2.2-.2.2c-.7.5-.8,1.1-.7,1.5,0,.6.5,1.1,1,1.3.8.3,1.6-.4,1.7-.4l.2-.2Z"/>
  <path class="st1" d="M126,112.4c-.3.5-.6,1.1-.7,1.7,0-.3,0-.7-.2-1-.1-.3-.3-.6-.6-.8s-.6-.2-.9,0"/>
  <path d="M125.2,115.4l-.2-1.3c0-.3,0-.6-.2-.9,0-.2-.2-.5-.5-.7-.2-.1-.5-.2-.7,0,0,0-.2,0-.3,0,0,0,0-.2,0-.3.3-.2.8-.2,1.1,0,.4.2.5.6.6.9,0,0,0,.1,0,.2.1-.3.3-.6.5-.9,0,0,.2-.1.3,0,0,0,.1.2,0,.3-.3.5-.5,1-.7,1.6l-.2,1.2Z"/>
  <path class="st4" d="M121.7,115.1l1.4,35.8,25,4.1,11.9-33.7c-.4-1.4-1.6-2.6-3.2-2.8-1.5-.2-3,.4-3.8,1.7,0-.1-1-2.4-3.6-2.9-1.8-.4-3.6.3-4.7,1.6-.5-1.5-1.9-2.6-3.5-2.8-1.6-.2-3.1.4-4,1.6,0-.2-1.1-2.2-3.5-2.7-2.6-.5-4.4,1.3-4.5,1.4-.1-.2-1-2-2.9-2.4-2.4-.6-4.5,1.3-4.5,1.3,0,0,0,0,0,0Z"/>
  <path d="M148.2,155.2h-.2s-25.2-4.1-25.2-4.1l-1.4-35.9h0c0,0,0-.2,0-.2.2-.2,2.3-1.9,4.7-1.4,1.7.4,2.6,1.7,3,2.3.6-.5,2.2-1.7,4.5-1.2,2,.4,3.1,1.9,3.5,2.5,1-1.1,2.5-1.7,4-1.5,1.6.2,3,1.2,3.5,2.7,1.2-1.2,2.9-1.8,4.7-1.4,2.2.4,3.2,2,3.6,2.7.9-1.1,2.3-1.7,3.8-1.5,1.6.2,3,1.4,3.4,2.9h0c0,0,0,.1,0,.1l-11.9,33.9ZM123.2,150.7l24.7,4,11.8-33.5c-.4-1.3-1.6-2.4-3-2.6-1.4-.2-2.9.4-3.6,1.6l-.2.3v-.4c-.2,0-1.1-2.3-3.6-2.8-1.7-.3-3.4.3-4.5,1.5l-.2.3v-.4c-.6-1.4-1.9-2.5-3.5-2.7-1.5-.2-3,.4-3.8,1.5l-.2.3v-.3c-.3-.2-1.2-2.1-3.5-2.6-2.5-.5-4.3,1.2-4.3,1.3l-.2.2v-.3c-.3-.3-1.1-1.9-2.9-2.3-2.1-.5-3.9.9-4.2,1.2l1.4,35.6Z"/>
  <path class="st1" d="M129.1,116.2c0,0,1.9-1.9,4.5-1.4,2.4.5,3.4,2.5,3.5,2.7l-4.7,34.9-4.9-.8,1.6-35.4Z"/>
  <path d="M132.6,152.6l-5.3-.9,1.6-35.7h0c0-.1,2-2,4.7-1.5,2.5.5,3.5,2.5,3.7,2.8h0c0,0,0,.1,0,.1l-4.7,35.1ZM127.8,151.4l4.5.7,4.7-34.6c-.2-.4-1.2-2.1-3.3-2.5-2.3-.5-4,.9-4.3,1.2l-1.5,35.1Z"/>
  <path class="st1" d="M152.9,120.1c0-.1-1-2.4-3.6-2.9-1.8-.4-3.6.3-4.7,1.6l-5.4,34.8,5,.8,8.8-34.2Z"/>
  <path d="M144.3,154.5l-5.3-.9,5.5-35h0c1.1-1.4,3.1-2.1,4.9-1.7,2.7.5,3.7,3,3.7,3.1h0c0,0,0,.1,0,.1l-8.8,34.4ZM139.4,153.3l4.6.7,8.7-34c-.2-.4-1.1-2.3-3.4-2.8-1.7-.3-3.4.3-4.5,1.5l-5.4,34.5Z"/>
  <path class="st3" d="M195.6,136.8c-3,6.2-10.8,7.5-17,7.9-6.8.5-13.6,0-20.5,0-2.2,0-4.3-1.1-4.6-3.5-.1-1,.2-2.2.9-3.1.6-.9,1.5-1.5,2.6-1.5,4.6,0,9.2.1,13.8.1,1.3,0,2.6,0,3.9,0,2.9,0,5.8-.3,8.6-.9,1.6-.3,3.9-.9,4.8-2.4.9-1.5-.8-3.5-1.6-4.6-1.5-2-3.2-3.9-4.9-5.8-2.4-2.7-4.9-5.4-7.3-8l1.6-10.3c.2.2.4.3.5.5,4.5,5.1,9.3,10,13.7,15.2,3.8,4.5,8.4,10.2,5.4,16.3Z"/>
  <path class="st1" d="M136.8,140.1c.3-.4.5-.5.5-.5-2.2-4.3,1.5-5.4,1.5-5.4-1.1-2-.6-3.2.2-3.9.7-.6,1.8-.6,2.6,0,4.9,3.4,13.3,1.8,13.3,1.8,0,0,1.3-9,4.9-7.4,1.3.6,2.5,5.1,2.6,9,0,0,2.8-2.3,4.2,1,1.4,3.4-.9,14.7-5.1,14.9-2.7.1-3.3-2.5-3.3-2.5-14,4.9-24.1-3.8-21.4-7Z"/>
  <path d="M161.3,149.9c-2.2,0-3-1.8-3.2-2.5-10.3,3.5-18.5-.1-21.1-3.9-.9-1.3-1-2.6-.3-3.5h0c.2-.2.3-.4.4-.4-.7-1.4-.8-2.7-.4-3.7.5-1.1,1.4-1.5,1.8-1.7-1.1-2.1-.4-3.3.3-4,.8-.7,1.9-.7,2.8-.1,4.4,3.1,11.9,2,13,1.8.2-1,1.1-6.1,3.3-7.3.6-.3,1.3-.4,1.9,0,1.4.6,2.6,5.1,2.8,8.8.5-.3,1.4-.7,2.3-.5.8.2,1.4.8,1.8,1.9,1,2.5.2,9.2-2.2,12.9-.9,1.5-2,2.3-3.2,2.3,0,0-.1,0-.2,0ZM158.3,146.9v.2c0,.1.7,2.5,3.1,2.4,1,0,2-.8,2.8-2.2,2.2-3.6,3.1-10.2,2.1-12.5-.4-.9-.9-1.5-1.6-1.6-1.1-.3-2.3.7-2.3.7l-.3.3v-.4c-.1-4-1.4-8.4-2.5-8.9-.6-.2-1.1-.2-1.6,0-2.2,1.2-3.1,7.1-3.1,7.2h0c0,.1-.1.2-.1.2,0,0-2.1.4-4.9.4-2.5,0-6-.4-8.6-2.2-.7-.5-1.7-.5-2.3,0-1,.9-1,2.1-.1,3.7v.2c.1,0-.1,0-.1,0,0,0-1.3.4-1.8,1.6-.4.9-.3,2.1.4,3.5v.2c0,0,0,.1,0,.1,0,0-.2.2-.5.5h0c-.6.7-.5,1.8.3,3,2.5,3.7,10.7,7.2,20.8,3.7h.2ZM136.8,140.1h0,0Z"/>
  <path d="M148.5,137.6c-1.9,0-5.9-.4-9.8-3.2,0,0-.1-.2,0-.3,0,0,.2-.1.3,0,5.2,3.8,10.6,3.1,10.7,3.1.1,0,.2,0,.2.2,0,.1,0,.2-.2.2,0,0-.5,0-1.2,0Z"/>
  <path d="M148.3,143.1c-1.6,0-6.1-.3-11.1-3.3,0,0-.1-.2,0-.3,0,0,.2-.1.3,0,6,3.6,11.4,3.2,11.4,3.2.1,0,.2,0,.2.2,0,.1,0,.2-.2.2,0,0-.2,0-.6,0Z"/>
  <path d="M161.4,137.9s0,0,0,0c-.1,0-.2-.1-.1-.2l1-4.1c0-.1.1-.2.2-.1.1,0,.2.1.1.2l-1,4.1c0,0-.1.2-.2.2Z"/>
  <line class="st1" x1="159.5" y1="144.2" x2="158.2" y2="147.1"/>
  <path d="M158.2,147.3s0,0,0,0c-.1,0-.2-.2-.1-.3l1.3-2.9c0-.1.2-.2.3-.1.1,0,.2.2.1.3l-1.3,2.9c0,0-.1.1-.2.1Z"/>
</svg>