<?xml version="1.0" encoding="UTF-8"?>
<svg id="Layer_1" xmlns="http://www.w3.org/2000/svg" version="1.1" viewBox="0 0 200 200">
  <!-- Generator: Adobe Illustrator 29.6.1, SVG Export Plug-In . SVG Version: 2.1.1 Build 9)  -->
  <defs>
    <style>
      .st0 {
        fill: #fff4b6;
      }
    </style>
  </defs>
  <path class="st0" d="M135.2,37.4c-3.2,3.1-6.6,6.9-9.3,10.6s-2.7,6.3-4.5,8.9-1.7.9-1.6,2.1l3.3,1.9c.8-2.2,4-1.2,5.6-1.2,5.9,0,11.8.2,17.6,0s15.3-.1,22.9,1.8,3.7,1.2,4,2.3c.5,1.7-2.6,7.8-3.4,9.8s-1,2.3-2.2,4.5-2.2,7.7-4.6,10-1.4.4-1.8,1.1c-.9,1.3-.5,4.1-1.8,5.8s-1.1.8-1.6,1.4c-.7,1-.4,2.9-2.6,2.7l.4,1.2c-.7.3-2.5,1.5-2.9,1.9s-.4,1.5-.8,2.1c-2.6,3.2-5.5,5.2-7.7,9s-4.8,10.7-7,13.9-3.2,2.6-4.8,5.7c-3,5.9-5.6,10.8-9.7,16.3s-5.4,7.9-8.4,12.1c-4.8,7-9.4,14.1-15,20.5s-7.8.7-10.4-4.2c-2.2-4.2-3.5-8.9-5.4-13-3.6-7.8-7.8-15.4-12-22.8s-4.4-8-2.7-12.2,2.9-3.3,3.8-4.6c1.5-2.3,2.2-3.3,3.8-5.5,2.9-3.9,5.4-8.5,7.1-13-.5-.5-8-.6-9.4-.9s-3.7-1.6-5.9-1.7-4.2.8-6.9.3-7.4-5.7-8.3-7.6-1.2-5.3-2-7.7c-5.3-15.7-11.4-31.2-16-47.2s-4.5-11.6-6.5-17.3-1.8-7.3-2.4-11.2c3.2-1.4,6.8-.7,10.3-.8,25.3-.8,51.3.4,76.6.4s5,.8,7.6.5c3.7-.5,3-.3,6.7,0s10.2.3,15.4,1c7.5,1,4.3,5.2,1.3,9.5s-7.1,11.8-9.1,13.7ZM81.5,28.5c-5.8-2.1-18.7-1.4-25.2-1s-2.3.7-3.4.8-1.4-.5-2.1-.4c-1,0-.8,1-1.3,1.3-1.4.9-2.7.6-3,3.1,1,2.3,3.2,3.2,5.4,3.8,9.5,2.6,20.9,3.6,30.4.6s2.8-1.5,4-1.9c1.8-1.8-.2-3.5-1.7-4.6s-2.7-1.6-3-1.8ZM146,78.6c-.2-.2-4-1.8-4.5-2-1.9-.6-7.1-1.6-8.9-1.4-6.2.6-14.4,0-20.1,1.2s-4.6,1.4-5.5,3.9c.9,4,5,3,7.7,5.1,3.6,1.2,7.4,1.9,11.2,1.8s1.8-.7,2.6-.7c4.7-.2,13.8.5,17.4-3.1s1.6-3.6.2-4.9Z"/>
  <path class="st0" d="M122.4,84.2c-4.3-4.3,1.3-8.8,6.2-5.9s-1.7,10.4-6.2,5.9Z"/>
  <path class="st0" d="M59.4,28.4c.2,0,2,2.1,2.2,2.6,2.3,5.7-8.5,7.2-9.2,1.7s.6-2.5,2.2-3.5.3-.7.6-.8c.7-.1,3.6-.1,4.2.1Z"/>
</svg>